<?xml version="1.0" encoding="UTF-8"?>
<svg xmlns="http://www.w3.org/2000/svg" version="1.1" xmlns:xlink="http://www.w3.org/1999/xlink" viewBox="0 0 50 50">
  <!-- Generator: Adobe Illustrator 29.0.1, SVG Export Plug-In . SVG Version: 2.1.0 Build 192)  -->
  <defs>
    <style>
      .st0 {
        fill: url(#radial-gradient);
      }

      .st0, .st1, .st2 {
        mix-blend-mode: overlay;
        opacity: .9;
      }

      .st3 {
        fill: url(#linear-gradient2);
      }

      .st1 {
        fill: url(#radial-gradient2);
      }

      .st4 {
        fill: url(#linear-gradient1);
      }

      .st5 {
        isolation: isolate;
      }

      .st6 {
        fill: #c48026;
      }

      .st7 {
        mix-blend-mode: multiply;
      }

      .st8 {
        fill: url(#linear-gradient3);
      }

      .st9 {
        fill: #fff885;
      }

      .st10 {
        fill: url(#linear-gradient);
      }

      .st2 {
        fill: url(#radial-gradient1);
      }
    </style>
    <linearGradient id="linear-gradient" x1="-6.7" y1="41.3" x2="65.7" y2="4.1" gradientUnits="userSpaceOnUse">
      <stop offset="0" stop-color="#cba639"/>
      <stop offset=".2" stop-color="#f3b900"/>
      <stop offset=".4" stop-color="#f9e16e"/>
      <stop offset=".5" stop-color="#fdd520"/>
      <stop offset=".8" stop-color="#dd9608"/>
      <stop offset="1" stop-color="#facd18"/>
    </linearGradient>
    <linearGradient id="linear-gradient1" x1="-5" y1="40.4" x2="63.5" y2="5.2" gradientUnits="userSpaceOnUse">
      <stop offset="0" stop-color="#facd18"/>
      <stop offset=".2" stop-color="#dd9608"/>
      <stop offset=".5" stop-color="#fdd520"/>
      <stop offset=".6" stop-color="#f9e16e"/>
      <stop offset=".8" stop-color="#f3b900"/>
      <stop offset="1" stop-color="#cba639"/>
    </linearGradient>
    <linearGradient id="linear-gradient2" x1=".2" y1="37.7" x2="51.2" y2="11.5" xlink:href="#linear-gradient"/>
    <linearGradient id="linear-gradient3" x1="2.1" y1="10" x2="81.3" y2="61.9" gradientTransform="translate(49.5 -.5) rotate(88.8)" xlink:href="#linear-gradient1"/>
    <radialGradient id="radial-gradient" cx="2.8" cy="-10" fx="2.8" fy="-10" r="58.5" gradientUnits="userSpaceOnUse">
      <stop offset="0" stop-color="#fff"/>
      <stop offset=".9" stop-color="#fff" stop-opacity="0"/>
    </radialGradient>
    <radialGradient id="radial-gradient1" cx="735.4" cy="-7587.2" fx="735.4" fy="-7587.2" r="25.8" gradientTransform="translate(296 1378.3) rotate(-26.5) scale(.5 .2)" gradientUnits="userSpaceOnUse">
      <stop offset="0" stop-color="#fff"/>
      <stop offset="0" stop-color="#fff" stop-opacity=".8"/>
      <stop offset=".2" stop-color="#fff" stop-opacity=".6"/>
      <stop offset=".3" stop-color="#fff" stop-opacity=".4"/>
      <stop offset=".4" stop-color="#fff" stop-opacity=".3"/>
      <stop offset=".6" stop-color="#fff" stop-opacity=".2"/>
      <stop offset=".7" stop-color="#fff" stop-opacity="0"/>
      <stop offset=".8" stop-color="#fff" stop-opacity="0"/>
      <stop offset=".9" stop-color="#fff" stop-opacity="0"/>
    </radialGradient>
    <radialGradient id="radial-gradient2" cx="13.5" cy="6.7" fx="13.5" fy="6.7" r="5.9" gradientTransform="translate(1.2 12.7) rotate(-33.9) scale(1 .3)" xlink:href="#radial-gradient1"/>
  </defs>
  <g class="st5">
    <g id="Layer_1">
      <g>
        <circle class="st10" cx="25" cy="25" r="22.8"/>
        <circle class="st4" cx="25" cy="25" r="21.6"/>
        <circle class="st3" cx="25" cy="25" r="17.8"/>
        <circle class="st8" cx="25" cy="25" r="16.5" transform="translate(-.5 49.5) rotate(-88.8)"/>
        <g>
          <g>
            <path class="st9" d="M27.6,27.1l-10.7-11.6h-1s0,16.7,0,16.7h1.5v-11.6l7.9,8.6c.2.2.3.4.4.7.3,1-.2,2-1.2,2.3-1,.3-2-.2-2.3-1.2,0-.3-.1-.5-.1-.8,0-.7.3-1.4.8-1.9l.3-.3-1.1-1.2-.3.3c-.8.8-1.2,1.9-1.2,3.1s0,.9.2,1.3c.6,2.2,2.9,3.6,5.2,2.9,1.8-.5,3.1-2.2,3.1-4.1s-.5-2.4-1.3-3.3Z"/>
            <polygon class="st9" points="32.9 15.5 25.3 23.4 26.4 24.6 31.1 19.7 31.1 32.2 34 32.2 34 15.5 32.9 15.5"/>
          </g>
          <g class="st7">
            <path class="st6" d="M27.7,26.5l-10.7-11.6h-1s0,16.7,0,16.7h1.5v-11.6l7.9,8.6c.2.2.3.4.4.7.3,1-.2,2-1.2,2.3-1,.3-2-.2-2.3-1.2,0-.3-.1-.5-.1-.8,0-.7.3-1.4.8-1.9l.3-.3-1.1-1.2-.3.3c-.8.8-1.2,1.9-1.2,3.1s0,.9.2,1.3c.6,2.2,2.9,3.6,5.2,2.9,1.8-.5,3.1-2.2,3.1-4.1s-.5-2.4-1.3-3.3Z"/>
            <polygon class="st6" points="33.1 14.9 25.4 22.8 26.5 24.1 31.2 19.2 31.2 31.6 34.1 31.6 34.1 14.9 33.1 14.9"/>
          </g>
        </g>
        <g>
          <path class="st0" d="M25,46.6c11.9,0,21.6-9.7,21.6-21.6s-6-17.3-14.3-20.3L10.5,40.9c3.8,3.5,8.9,5.7,14.5,5.7Z"/>
          <path class="st2" d="M43.5,34.8c1.1,2.2-3.1,6.5-9.3,9.6-6.2,3.1-12.2,3.8-13.3,1.6-1.1-2.2,3.1-6.5,9.3-9.6,6.2-3.1,12.2-3.8,13.3-1.6Z"/>
          <path class="st1" d="M8.4,9.4c0,.2,0,.4,0,.5.5.8,3.1,0,5.9-1.8,2.8-1.8,4.6-3.8,4.1-4.6,0-.1-.2-.2-.3-.2-3.8,1.2-7.1,3.3-9.7,6.1Z"/>
        </g>
      </g>
    </g>
  </g>
</svg>